<?xml version="1.0"?>
<svg xmlns="http://www.w3.org/2000/svg" xmlns:xlink="http://www.w3.org/1999/xlink" xmlns:svgjs="http://svgjs.com/svgjs" version="1.1" width="512" height="512" x="0" y="0" viewBox="0 0 496.001 496.001" style="enable-background:new 0 0 512 512" xml:space="preserve" class=""><g><path xmlns="http://www.w3.org/2000/svg" d="m14.235 183.697c-2.959-1.951-4.273-5.631-3.228-9.018 9.157-29.685 23.892-57.429 43.675-81.947 2.536-3.143 7.045-3.872 10.457-1.712 114.188 72.295 248.198 74.533 365.868.172 3.415-2.158 7.923-1.425 10.456 1.721 19.761 24.538 34.474 52.298 43.604 81.999 1.041 3.388-.276 7.065-3.236 9.014-145.744 95.935-320.746 96.622-467.596-.229zm480.899 43.61c-.494-5.929-7.003-9.324-12.094-6.245-145.417 87.953-319.76 90.863-470.054-.24-5.089-3.085-11.599.308-12.099 6.237-2.172 25.769-.38 52.151 5.625 77.88.465 1.992 1.69 3.726 3.404 4.842 146.442 95.397 318.682 102.605 476.089.321 1.715-1.115 2.942-2.846 3.41-4.837 5.952-25.348 7.901-51.757 5.719-77.958zm-459.313 134.642c-3.488-1.825-7.258 1.996-5.361 5.445 94.239 171.351 340.48 171.307 434.875.371 1.918-3.473-1.814-7.336-5.331-5.503-138.757 72.33-287.21 71.337-424.183-.313zm368.866-292.163c4.769-2.813 5.36-9.511 1.095-13.041-91.214-75.484-224.008-75.621-315.383-.146-4.269 3.526-3.683 10.226 1.084 13.042 99.401 58.736 212.476 59.555 313.204.145z" fill="#000000" data-original="#000000" style="" class=""/></g></svg>
