<?xml version="1.0"?>
<svg xmlns="http://www.w3.org/2000/svg" xmlns:xlink="http://www.w3.org/1999/xlink" xmlns:svgjs="http://svgjs.com/svgjs" version="1.1" width="512" height="512" x="0" y="0" viewBox="0 0 511 511" style="enable-background:new 0 0 512 512" xml:space="preserve"><g><g xmlns="http://www.w3.org/2000/svg" id="XMLID_27_"><path id="XMLID_198_" d="m397.987 404.743h-11.982v-46.453c0-91.91-79-135.7-121.44-159.23-4.25-2.36-6.86-6.82-6.8-11.64v-1.13c0-18.25-5.39-36.17-15.34-51.37 5.44-5.48 8.23-8.67 14.51-21.66 22.58-46.68 4.66-100.87 3.89-103.15l-3.43-10.11-10.05 3.59c-2.27.81-55.88 20.4-78.46 67.09-5.42 11.21-5.94 15.63-6.29 21.83-1.02.01-2.03.04-3.04.09-23.33 1.07-47.68 10.66-66.8 26.29-21.16 17.3-32.83 39.42-32.87 62.29-.04 33.69 19.95 48.17 36.01 59.79 4.83 3.5 9.4 6.8 12.99 10.32 7.5 7.32 9.71 18.85 5.48 28.67-7.56 17.61-11.4 36.32-11.4 55.63 0 24.55 4.85 53.33 12.72 76.94-.12.03-.24.06-.35.1.71-.04 1.42-.05 2.14-.05h45.34c0-.68.01-1.37.02-2.05.35-16.36 4.68-32.6 12.51-46.97l26.34 14.36c-.05.1-.11.2-.16.3-5.52 10.24-8.44 21.32-8.69 32.95-.1 4.65.24 9.33 1.01 13.92l2.95 17.49h-78.585-.735c-.906 0-1.798.062-2.676.17-17.292 1.712-30.799 16.298-30.799 34.04 0 18.894 15.316 34.21 34.21 34.21h279.777c29.295 0 53.128-23.833 53.128-53.128s-23.833-53.129-53.128-53.129zm-245.767-211.881c-8.409 0-14.636-6.873-15-15-.363-8.101 7.154-15 15-15 8.409 0 14.636 6.873 15 15 .363 8.101-7.154 15-15 15z" fill="#ffffff" data-original="#000000" style=""/></g></g></svg>
