<?xml version="1.0"?>
<svg xmlns="http://www.w3.org/2000/svg" xmlns:xlink="http://www.w3.org/1999/xlink" xmlns:svgjs="http://svgjs.com/svgjs" version="1.1" width="512" height="512" x="0" y="0" viewBox="0 0 512 512" style="enable-background:new 0 0 512 512" xml:space="preserve" class=""><g transform="matrix(-1,0,0,1,512.0010147094727,0)"><g xmlns="http://www.w3.org/2000/svg"><path d="m221.738 512h33.738v-91.961c-10.994 4.221-22.278 7.117-33.738 8.628z" fill="#000000" data-original="#000000" style="" class=""/><path d="m436.295 30h45.703v-30h-57.623l-189.502 178.829 40.178 3.333z" fill="#000000" data-original="#000000" style="" class=""/><path d="m469.48 228.422c13.4 14.557 22.63 32.13 27.047 51.047 9.512-8.772 15.474-21.335 15.474-35.294v-41.079c0-26.513-21.493-48.006-48.006-48.006h-15.732c2.191 23.533.769 41.252-1.799 54.144 8.404 5.303 16.151 11.73 23.016 19.188z" fill="#000000" data-original="#000000" style="" class=""/><path d="m199.272 249.872 2.202-43.711-52.402-115.865h-41.97c-25.28 0-47.315 17.205-53.447 41.73l-.191.762-53.464 10.623v21.595c0 23.275 18.868 42.144 42.143 42.144h43.19v42.722z" fill="#000000" data-original="#000000" style="" class=""/><path d="m469.508 305.383c0-43.511-33.361-79.754-76.723-83.352l-161.397-13.389-9.556 189.673c8.366-1.405 16.764-3.753 25.079-7.128l99.699-40.465c27.273 67.071 101.653 89.044 101.653 89.044v72.234h63.737v-93.478l-42.492-52.05z" fill="#000000" data-original="#000000" style="" class=""/><path d="m191.738 512v-112.603l6.022-119.525h-112.427v2.517c0 37.373 16.98 69.403 42.667 90.547v139.064z" fill="#000000" data-original="#000000" style="" class=""/></g></g></svg>
